<!-- Tight viewBox so gears fill the tab icon (browsers scale to ~16×16px) -->
<svg xmlns="http://www.w3.org/2000/svg" viewBox="-6 11 204 161">
  <g transform="translate(55,72)">
    <path fill="#0c9f90" d="M58 0 L42.5 11.4 L50.2 29 L31.1 31.1 L29 50.2 L11.4 42.5 L0 58 L-11.4 42.5 L-29 50.2 L-31.1 31.1 L-50.2 29 L-42.5 11.4 L-58 0 L-42.5 -11.4 L-50.2 -29 L-31.1 -31.1 L-29 -50.2 L-11.4 -42.5 L0 -58 L11.4 -42.5 L29 -50.2 L31.1 -31.1 L50.2 -29 L42.5 -11.4 Z"/>
    <circle cx="0" cy="0" r="16" fill="#f6f4f0"/>
  </g>
  <g transform="translate(153,72)">
    <path fill="#0c9f90" d="M40 0 L26.6 8.65 L32.4 23.5 L16.45 22.65 L12.36 38.04 L0 28 L-12.36 38.04 L-16.45 22.65 L-32.4 23.5 L-26.6 8.65 L-40 0 L-26.6 -8.65 L-32.4 -23.5 L-16.45 -22.65 L-12.36 -38.04 L0 -28 L12.36 -38.04 L16.45 -22.65 L32.4 -23.5 L26.6 -8.65 Z"/>
    <circle cx="0" cy="0" r="11" fill="#f6f4f0"/>
  </g>
  <g transform="translate(119,135)">
    <path fill="#0c9f90" d="M32 0 L20.3 8.42 L22.6 22.6 L8.42 20.3 L0 32 L-8.42 20.3 L-22.6 22.6 L-20.3 8.42 L-32 0 L-20.3 -8.42 L-22.6 -22.6 L-8.42 -20.3 L0 -32 L8.42 -20.3 L22.6 -22.6 L20.3 -8.42 Z"/>
    <circle cx="0" cy="0" r="8" fill="#f6f4f0"/>
  </g>
</svg>
