<svg xmlns="http://www.w3.org/2000/svg" viewBox="0 0 256 256">
  <g fill="#0c9f90">
    <path fill-rule="evenodd" transform="translate(79 104)" d="M58 0 L42.5 11.4 L50.2 29 L31.1 31.1 L29 50.2 L11.4 42.5 L0 58 L-11.4 42.5 L-29 50.2 L-31.1 31.1 L-50.2 29 L-42.5 11.4 L-58 0 L-42.5 -11.4 L-50.2 -29 L-31.1 -31.1 L-29 -50.2 L-11.4 -42.5 L0 -58 L11.4 -42.5 L29 -50.2 L31.1 -31.1 L50.2 -29 L42.5 -11.4 Z M16 0 A16 16 0 1 0 -16 0 A16 16 0 1 0 16 0 Z" />
    <path fill-rule="evenodd" transform="translate(173 100)" d="M40 0 L26.6 8.65 L32.4 23.5 L16.45 22.65 L12.36 38.04 L0 28 L-12.36 38.04 L-16.45 22.65 L-32.4 23.5 L-26.6 8.65 L-40 0 L-26.6 -8.65 L-32.4 -23.5 L-16.45 -22.65 L-12.36 -38.04 L0 -28 L12.36 -38.04 L16.45 -22.65 L32.4 -23.5 L26.6 -8.65 Z M11 0 A11 11 0 1 0 -11 0 A11 11 0 1 0 11 0 Z" />
    <path fill-rule="evenodd" transform="translate(142 166)" d="M32 0 L20.3 8.42 L22.6 22.6 L8.42 20.3 L0 32 L-8.42 20.3 L-22.6 22.6 L-20.3 8.42 L-32 0 L-20.3 -8.42 L-22.6 -22.6 L-8.42 -20.3 L0 -32 L8.42 -20.3 L22.6 -22.6 L20.3 -8.42 Z M8 0 A8 8 0 1 0 -8 0 A8 8 0 1 0 8 0 Z" />
  </g>
</svg>
